# xmcd CD database file
#
# Track frame offsets:
#	150
#	22963
#	42112
#	66100
#	91741
#	116170
#	150887
#	189880
#	210326
#
# Disc length: 3195 seconds
#
# Revision: 0
# Processed by: cddbd v1.5.1PL0 Copyright (c) Steve Scherf et al.
# Submitted via: CDex 1.51
#
DISCID=5f0c7909
DTITLE=Eberhard Weber - Pendulum
DYEAR=1993
DGENRE=Jazz
TTITLE0=Bird Out Of Cage
TTITLE1=Notes After An Evening
TTITLE2=Delirium
TTITLE3=Children' s Song No. 1
TTITLE4=Street Scenes
TTITLE5=Silent For A While
TTITLE6=Pendulum
TTITLE7=Unfinished Self-Portrait
TTITLE8=Closing Scene
EXTD=YEAR: 1993
EXTT0=
EXTT1=
EXTT2=
EXTT3=
EXTT4=
EXTT5=
EXTT6=
EXTT7=
EXTT8=
PLAYORDER=
